<svg xmlns="http://www.w3.org/2000/svg" viewBox="0 0 100 100" fill="none">
  <defs>
    <linearGradient id="hexGradMin" x1="0%" y1="0%" x2="100%" y2="100%">
      <stop offset="0%" style="stop-color:#3b82f6;stop-opacity:1" />
      <stop offset="100%" style="stop-color:#1e40af;stop-opacity:1" />
    </linearGradient>
    
    <linearGradient id="circuitGradMin" x1="0%" y1="0%" x2="100%" y2="0%">
      <stop offset="0%" style="stop-color:#60a5fa;stop-opacity:1" />
      <stop offset="100%" style="stop-color:#3b82f6;stop-opacity:1" />
    </linearGradient>
  </defs>
  
  <!-- Hexagon background -->
  <polygon points="50,10 85,30 85,70 50,90 15,70 15,30" 
           fill="url(#hexGradMin)" 
           stroke="#1e3a8a" 
           stroke-width="2"/>
  
  <!-- Circuit pattern simplifié -->
  <g stroke="url(#circuitGradMin)" stroke-width="2" fill="none">
    <!-- Horizontal -->
    <line x1="30" y1="40" x2="70" y2="40" stroke-linecap="round"/>
    <line x1="30" y1="50" x2="70" y2="50" stroke-linecap="round"/>
    <line x1="30" y1="60" x2="70" y2="60" stroke-linecap="round"/>
    
    <!-- Vertical -->
    <line x1="40" y1="35" x2="40" y2="65" stroke-linecap="round"/>
    <line x1="50" y1="35" x2="50" y2="65" stroke-linecap="round"/>
    <line x1="60" y1="35" x2="60" y2="65" stroke-linecap="round"/>
  </g>
  
  <!-- Connection nodes -->
  <g fill="white">
    <circle cx="40" cy="40" r="2.5"/>
    <circle cx="50" cy="40" r="2.5"/>
    <circle cx="60" cy="40" r="2.5"/>
    
    <circle cx="40" cy="50" r="3"/>
    <circle cx="50" cy="50" r="3.5"/>
    <circle cx="60" cy="50" r="3"/>
    
    <circle cx="40" cy="60" r="2.5"/>
    <circle cx="50" cy="60" r="2.5"/>
    <circle cx="60" cy="60" r="2.5"/>
  </g>
  
  <!-- Center glow -->
  <circle cx="50" cy="50" r="6" fill="none" stroke="white" stroke-width="1.5" opacity="0.6"/>
</svg>
